<svg xmlns="http://www.w3.org/2000/svg" width="151.874" height="37.348" viewBox="0 0 151.874 37.348">
  <g id="logo-original" transform="translate(-11.83 -27.35)">
    <path id="Path_5850" data-name="Path 5850" d="M425.419,37l9.909-9.646H423.14Z" transform="translate(-370.384)" fill="#d60059"/>
    <g id="Group_970" data-name="Group 970" transform="translate(11.83 27.35)">
      <path id="Path_5849" data-name="Path 5849" d="M306.145,27.35H297.73l8.2,35.606h8.415Z" transform="translate(-269.282 -27.35)" fill="#fff"/>
      <path id="Path_5851" data-name="Path 5851" d="M498.013,36.019a11.045,11.045,0,0,1,5.818-1.6,10.6,10.6,0,0,1,5.5,1.577,14.129,14.129,0,0,1,4.369,4.046l7.249-2.811a19.708,19.708,0,0,0-7.2-7.176,19.24,19.24,0,0,0-9.914-2.687,19.514,19.514,0,0,0-9.744,2.513,19.163,19.163,0,0,0-7.081,6.8,18.01,18.01,0,0,0,0,18.68,19.178,19.178,0,0,0,7.081,6.807c.505.287,1.016.546,1.539.783a19.675,19.675,0,0,0,8.2,1.736,19.2,19.2,0,0,0,8.078-1.736,20.253,20.253,0,0,0,1.864-.979,19.876,19.876,0,0,0,7.176-7.249L513.7,51.906a14.086,14.086,0,0,1-4.365,4.1,10.427,10.427,0,0,1-5.5,1.6,11.045,11.045,0,0,1-5.818-1.6,11.824,11.824,0,0,1-4.219-4.237,11.319,11.319,0,0,1-1.553-5.75A11.2,11.2,0,0,1,493.8,40.3a11.949,11.949,0,0,1,4.219-4.265" transform="translate(-437.378 -27.362)" fill="#fff"/>
      <path id="Path_5852" data-name="Path 5852" d="M905.416,55.133a8.655,8.655,0,0,1-1.33,5.058,7.41,7.41,0,0,1-3.231,2.687,9.606,9.606,0,0,1-3.708.788,9.719,9.719,0,0,1-3.772-.788,7.555,7.555,0,0,1-3.258-2.687,8.483,8.483,0,0,1-1.367-5.058V33.72h-7.788V55.133a15.766,15.766,0,0,0,1.99,8.042A13.507,13.507,0,0,0,888.6,68.5l.4.192a20.359,20.359,0,0,0,16.219,0c.132-.064.27-.123.4-.192a13.351,13.351,0,0,0,5.627-5.325,15.956,15.956,0,0,0,1.972-8.042V33.72h-7.8Z" transform="translate(-794.477 -33.086)" fill="#fff"/>
      <path id="Path_5853" data-name="Path 5853" d="M1259.088,47.551a11.071,11.071,0,0,0-4.661-3.23,46.677,46.677,0,0,0-6.784-1.754l-1.777-.346c-1.822-.4-3.116-.7-3.918-.911a6.83,6.83,0,0,1-2.223-1.02,2.21,2.21,0,0,1-1-1.913,2.81,2.81,0,0,1,1.968-2.734,10.966,10.966,0,0,1,4.237-.82,14.581,14.581,0,0,1,5.185.989,22.069,22.069,0,0,1,5.012,2.733l4.341-5.922a26.236,26.236,0,0,0-6.54-3.64,22.323,22.323,0,0,0-7.719-1.213,19.192,19.192,0,0,0-10.024,2.538q-4.253,2.538-4.264,8.358a8.286,8.286,0,0,0,2.414,6.269,13.641,13.641,0,0,0,5.39,3.262,47.668,47.668,0,0,0,6.506,1.53q2.664.493,4.3.911a7.142,7.142,0,0,1,2.687,1.258,2.637,2.637,0,0,1,1.057,2.169,3.347,3.347,0,0,1-1.822,2.811,8.752,8.752,0,0,1-4.844,1.184,17.448,17.448,0,0,1-6.414-1.4,20.872,20.872,0,0,1-5.623-3.189l-4.142,5.962a22.8,22.8,0,0,0,6.475,3.9,26.678,26.678,0,0,0,9.79,1.735,19.236,19.236,0,0,0,8.63-1.735,12.758,12.758,0,0,0,1.854-1.125,9.718,9.718,0,0,0,3.873-8.337,9.316,9.316,0,0,0-1.972-6.315" transform="translate(-1109.177 -27.724)" fill="#fff"/>
      <path id="Path_5854" data-name="Path 5854" d="M11.83,27.35H26.363c8.484,0,13.614,5.012,13.614,12.3v.1c0,8.228-6.4,12.5-14.379,12.5H19.675V62.915H11.83ZM25.853,45.283c3.9,0,6.183-2.337,6.183-5.367v-.1c0-3.544-2.424-5.4-6.333-5.4H19.657v10.87Z" transform="translate(-11.83 -27.35)" fill="#fff"/>
    </g>
  </g>
</svg>

